<svg xmlns="http://www.w3.org/2000/svg" viewBox="0 0 512 512" xmlns:v="https://vecta.io/nano">
<path d="M210.93 261.84c-3.715 0-6.775 1.003-6.993 4.1-.328 4.2-1.202 10.725-11.145 10.725-7.54 0-11.692-3.708-11.692-11.527v-27.966c-.001-7.818 4.15-11.527 11.472-11.527 10.38 0 11.145 6.816 11.364 9.923.1 3.007 3.06 4.1 7.103 4.1 4.807 0 7.102-1.203 7.102-6.415 0-11.627-10.817-19.045-26.005-19.045-13.768 0-25.24 6.215-25.24 22.954v27.966c0 16.74 11.364 22.954 25.13 22.954 15.298 0 26.115-7.718 26.115-19.847 0-5.1-2.3-6.4-7.2-6.4zm44.14-47.6H233.1c-3.278 0-5.354 1.904-5.354 4v65.154c0 2.706 3.497 4.1 7.102 4.1 3.496 0 7.102-1.404 7.102-4.1V260.14h12.238c14.424 0 25.678-6.315 25.678-22.754v-.602c0-16.45-10.93-22.56-24.8-22.56zm10.6 24.16c0 7.82-4.37 11.528-11.473 11.528h-12.24v-24.26h12.238c7.103 0 11.473 3.7 11.473 11.528v1.2zm67.96-24.16c-3.606 0-7.102 1.203-7.102 4v46.9c0 7.82-4.48 11.527-12.02 11.527s-12.02-3.708-12.02-11.527v-46.9c0-2.807-3.606-4-7.102-4-3.606 0-7.103 1.203-7.103 4v46.9c0 16.74 11.473 22.954 26.224 22.954 14.642 0 26.224-6.215 26.224-22.954v-46.9c.01-2.8-3.6-4-7.1-4z"/><circle cy="63.63" cx="67" r="8.05"/><circle cy="63.63" cx="101.24" r="8.05"/><circle cy="63.63" cx="135.49" r="8.05"/><circle cy="63.63" cx="169.73" r="8.05"/><circle cy="63.63" cx="203.97" r="8.05"/><circle cy="63.63" cx="238.21" r="8.05"/><circle cy="63.63" cx="272.45" r="8.05"/><circle cy="63.63" cx="306.69" r="8.05"/><circle cy="63.63" cx="340.94" r="8.05"/><circle cy="63.63" cx="375.18" r="8.05"/><circle cy="63.63" cx="409.42" r="8.05"/><circle cy="63.63" cx="443.66" r="8.05"/><circle cy="98.31" cx="67" r="8.05"/><circle cy="98.31" cx="101.24" r="8.05"/><circle cy="98.31" cx="135.49" r="8.05"/><circle cy="98.31" cx="169.73" r="8.05"/><circle cy="98.31" cx="203.97" r="8.05"/><circle cy="98.31" cx="238.21" r="8.05"/><circle cy="98.31" cx="272.45" r="8.05"/><circle cy="98.31" cx="306.69" r="8.05"/><circle cy="98.31" cx="340.94" r="8.05"/><circle cy="98.31" cx="375.18" r="8.05"/><circle cy="98.31" cx="409.42" r="8.05"/><circle cy="98.31" cx="443.66" r="8.05"/><circle cy="133.3" cx="67" r="8.05"/><circle cy="133.3" cx="101.24" r="8.05"/><circle cy="133.3" cx="409.42" r="8.05"/><circle cy="133.3" cx="443.66" r="8.05"/><circle cy="167.98" cx="67" r="8.05"/><circle cy="167.98" cx="101.24" r="8.05"/><circle cy="167.98" cx="409.42" r="8.05"/><circle cy="167.98" cx="443.66" r="8.05"/><circle cy="202.97" cx="67" r="8.05"/><circle cy="202.97" cx="101.24" r="8.05"/><circle cy="202.97" cx="409.42" r="8.05"/><circle cy="202.97" cx="443.66" r="8.05"/><circle cy="237.65" cx="67" r="8.05"/><circle cy="237.65" cx="101.24" r="8.05"/><circle cy="237.65" cx="409.42" r="8.05"/><circle cy="237.65" cx="443.66" r="8.05"/><circle cy="272.64" cx="67" r="8.05"/><circle cy="272.64" cx="101.24" r="8.05"/><circle cy="272.64" cx="409.42" r="8.05"/><circle cy="272.64" cx="443.66" r="8.05"/><circle cy="307.32" cx="67" r="8.05"/><circle cy="307.32" cx="101.24" r="8.05"/><circle cy="307.32" cx="409.42" r="8.05"/><circle cy="307.32" cx="443.66" r="8.05"/><circle cy="342.31" cx="67" r="8.05"/><circle cy="342.31" cx="101.24" r="8.05"/><circle cy="342.31" cx="409.42" r="8.05"/><circle cy="342.31" cx="443.66" r="8.05"/><circle cy="376.98" cx="67" r="8.05"/><circle cy="376.98" cx="101.24" r="8.05"/><circle cy="376.98" cx="409.42" r="8.05"/><circle cy="376.98" cx="443.66" r="8.05"/><circle cy="411.98" cx="67" r="8.05"/><circle cy="411.98" cx="101.24" r="8.05"/><circle cy="411.98" cx="135.49" r="8.05"/><circle cy="411.98" cx="169.73" r="8.05"/><circle cy="411.98" cx="203.97" r="8.05"/><circle cy="411.98" cx="238.21" r="8.05"/><circle cy="411.98" cx="272.45" r="8.05"/><circle cy="411.98" cx="306.69" r="8.05"/><circle cy="411.98" cx="340.94" r="8.05"/><circle cy="411.98" cx="375.18" r="8.05"/><circle cy="411.98" cx="409.42" r="8.05"/><circle cy="411.98" cx="443.66" r="8.05"/><circle cy="446.65" cx="67" r="8.05"/><circle cy="446.65" cx="101.24" r="8.05"/><circle cy="446.65" cx="135.49" r="8.05"/><circle cy="446.65" cx="169.73" r="8.05"/><circle cy="446.65" cx="203.97" r="8.05"/><circle cy="446.65" cx="238.21" r="8.05"/><circle cy="446.65" cx="272.45" r="8.05"/><circle cy="446.65" cx="306.69" r="8.05"/><circle cy="446.65" cx="340.94" r="8.05"/><circle cy="446.65" cx="375.18" r="8.05"/><circle cy="446.65" cx="409.42" r="8.05"/><circle cy="446.65" cx="443.66" r="8.05"/><path d="M372.4 122.2H139.6a17.42 17.42 0 0 0-17.397 17.397v96.4a7.5 7.5 0 1 0 15 0V139.6a2.4 2.4 0 0 1 2.397-2.397h232.8a2.4 2.4 0 0 1 2.397 2.397V236a7.5 7.5 0 1 0 15 0v-96.397c0-9.6-7.8-17.4-17.4-17.4zm9.9 146.3a7.5 7.5 0 0 0-7.5 7.5v45.787c0 1.8-.737 3.577-2.02 4.85l-46.582 46.178a6.79 6.79 0 0 1-4.808 1.98H139.6a2.4 2.4 0 0 1-2.397-2.397v-96.4a7.5 7.5 0 1 0-15 0v96.397c0 9.593 7.805 17.397 17.397 17.397h181.78a21.69 21.69 0 0 0 15.368-6.327l46.582-46.178a21.97 21.97 0 0 0 6.46-15.502v-45.8a7.5 7.5 0 0 0-7.5-7.5zm122.2-121.68a7.5 7.5 0 1 0 0-15h-21.58V88.473h21.58a7.5 7.5 0 1 0 0-15h-21.58V58.72c0-16.344-13.297-29.64-29.64-29.64h-14.753V7.5a7.5 7.5 0 1 0-15 0v21.58h-43.342V7.5a7.5 7.5 0 1 0-15 0v21.58h-43.343V7.5a7.5 7.5 0 1 0-15 0v21.58h-43.35V7.5a7.5 7.5 0 1 0-15 0v21.58H205.15V7.5a7.5 7.5 0 1 0-15 0v21.58h-43.343V7.5a7.5 7.5 0 1 0-15 0v21.58H88.46V7.5a7.5 7.5 0 1 0-15 0v21.58H58.708c-16.344 0-29.64 13.297-29.64 29.64v14.753H7.488a7.5 7.5 0 1 0 0 15h21.58v43.342H7.488a7.5 7.5 0 1 0 0 15h21.58v43.343H7.488a7.5 7.5 0 1 0 0 15h21.58v43.34H7.488a7.5 7.5 0 1 0 0 15h21.58v43.342H7.488a7.5 7.5 0 1 0 0 15h21.58v43.343H7.488a7.5 7.5 0 1 0 0 15h21.58v43.342H7.488a7.5 7.5 0 1 0 0 15h21.58v14.753c0 16.344 13.297 29.64 29.64 29.64H73.46v21.6a7.5 7.5 0 1 0 15 0v-21.58h43.342v21.58a7.5 7.5 0 1 0 15 0v-21.58h43.343v21.58a7.5 7.5 0 1 0 15 0v-21.58h43.34v21.58a7.5 7.5 0 1 0 15 0v-21.58h43.342v21.58a7.5 7.5 0 1 0 15 0v-21.58h43.343v21.58a7.5 7.5 0 1 0 15 0v-21.58h43.342v21.58a7.5 7.5 0 1 0 15 0v-21.58h14.753c16.344 0 29.64-13.297 29.64-29.64v-14.753h21.6a7.5 7.5 0 1 0 0-15h-21.58V380.2h21.58a7.5 7.5 0 1 0 0-15h-21.58v-43.343h21.58a7.5 7.5 0 1 0 0-15h-21.58v-43.35h21.58a7.5 7.5 0 1 0 0-15h-21.58v-43.342h21.58a7.5 7.5 0 1 0 0-15h-21.58v-43.343h21.58zm-36.58-65.857v372.32a14.66 14.66 0 0 1-14.64 14.64H58.72a14.66 14.66 0 0 1-14.64-14.64V58.734a14.66 14.66 0 0 1 14.64-14.64h394.56a14.66 14.66 0 0 1 14.64 14.64v22.243z"/>
</svg>