<svg xmlns="http://www.w3.org/2000/svg" xmlns:xlink="http://www.w3.org/1999/xlink" height="512" viewBox="0 0 64 64" width="512" xmlns:v="https://vecta.io/nano"><path d="M7.467 11.733h-6.4c-.59 0-1.067-.478-1.067-1.066A1.07 1.07 0 0 1 1.067 9.6h6.4a1.07 1.07 0 0 1 1.067 1.067 1.07 1.07 0 0 1-1.067 1.066z"/><path d="M7.467 54.4A1.07 1.07 0 0 1 6.4 53.333V10.667A1.07 1.07 0 0 1 7.467 9.6a1.07 1.07 0 0 1 1.067 1.067v42.667A1.07 1.07 0 0 1 7.467 54.4z"/><path d="M7.467 32H3.2a1.07 1.07 0 0 1-1.067-1.067V22.4A1.07 1.07 0 0 1 3.2 21.333h4.267A1.07 1.07 0 0 1 8.534 22.4v8.533A1.07 1.07 0 0 1 7.467 32zm-3.2-2.133H6.4v-6.4H4.267zm3.2 19.2H3.2A1.07 1.07 0 0 1 2.133 48v-8.533A1.07 1.07 0 0 1 3.2 38.4h4.267a1.07 1.07 0 0 1 1.067 1.067V48a1.07 1.07 0 0 1-1.067 1.067zm-3.2-2.134H6.4v-6.4H4.267zM38.4 54.4H14.933a1.07 1.07 0 0 1-1.067-1.067v-7.467a1.07 1.07 0 0 1 1.067-1.067H38.4a1.07 1.07 0 0 1 1.067 1.067v7.467A1.07 1.07 0 0 1 38.4 54.4zM16 52.267h21.333v-5.333H16z"/><path d="M20.267 54.4a1.07 1.07 0 0 1-1.067-1.067v-3.2a1.07 1.07 0 0 1 1.067-1.067 1.07 1.07 0 0 1 1.067 1.067v3.2a1.07 1.07 0 0 1-1.067 1.067zm12.8 0A1.07 1.07 0 0 1 32 53.333v-3.2a1.07 1.07 0 0 1 1.067-1.067 1.07 1.07 0 0 1 1.067 1.067v3.2a1.07 1.07 0 0 1-1.067 1.067zm16 0A1.07 1.07 0 0 1 48 53.333v-3.2a1.07 1.07 0 0 1 1.067-1.067 1.07 1.07 0 0 1 1.067 1.067v3.2a1.07 1.07 0 0 1-1.067 1.067zm-20.267 0a1.07 1.07 0 0 1-1.067-1.067v-3.2a1.07 1.07 0 0 1 1.067-1.067 1.07 1.07 0 0 1 1.067 1.067v3.2A1.07 1.07 0 0 1 28.8 54.4z"/><path d="M24.533 54.4a1.07 1.07 0 0 1-1.067-1.067v-3.2a1.07 1.07 0 0 1 1.067-1.067 1.07 1.07 0 0 1 1.067 1.067v3.2a1.07 1.07 0 0 1-1.067 1.067zm28.8 0H44.8a1.07 1.07 0 0 1-1.067-1.067v-7.467a1.07 1.07 0 0 1 1.067-1.067h8.533a1.07 1.07 0 0 1 1.067 1.067v7.467a1.07 1.07 0 0 1-1.067 1.067zm-7.466-2.133h6.4v-5.333h-6.4zM7.467 19.2H3.2a1.07 1.07 0 0 1-1.067-1.067A1.07 1.07 0 0 1 3.2 17.066h4.267a1.07 1.07 0 0 1 1.067 1.067A1.07 1.07 0 0 1 7.467 19.2zm0 17.067H3.2A1.07 1.07 0 0 1 2.133 35.2 1.07 1.07 0 0 1 3.2 34.133h4.267A1.07 1.07 0 0 1 8.534 35.2a1.07 1.07 0 0 1-1.067 1.067z"/><use xlink:href="#B"/><path d="M22.4 35.2c-2.353 0-4.267-1.914-4.267-4.267s1.914-4.267 4.267-4.267 4.267 1.914 4.267 4.267S24.753 35.2 22.4 35.2zm0-6.4c-1.177 0-2.133.957-2.133 2.133s.957 2.133 2.133 2.133 2.133-.957 2.133-2.133S23.577 28.8 22.4 28.8zm35.2 18.133H7.467A1.07 1.07 0 0 1 6.4 45.866V16a1.07 1.07 0 0 1 1.067-1.067H57.6a6.41 6.41 0 0 1 6.4 6.399v19.203a6.41 6.41 0 0 1-6.4 6.398zM8.533 44.8H57.6c2.352 0 4.266-1.914 4.266-4.266V21.332c0-2.352-1.914-4.266-4.266-4.266H8.533z"/><path d="M22.4 28.8a1.07 1.07 0 0 1-1.067-1.067c0-2.298-2.932-4.267-5.333-4.267a1.07 1.07 0 0 1-1.067-1.067A1.07 1.07 0 0 1 16 21.332c3.453 0 7.467 2.796 7.467 6.4A1.07 1.07 0 0 1 22.4 28.8z"/><use xlink:href="#C"/><path d="M13.867 38.4a1.07 1.07 0 0 1-1.067-1.067c0-3.453 2.796-7.467 6.4-7.467a1.07 1.07 0 0 1 1.067 1.067A1.07 1.07 0 0 1 19.2 32c-2.298 0-4.267 2.933-4.267 5.333 0 .6-.478 1.067-1.066 1.067zM25.6 32a1.07 1.07 0 0 1-1.067-1.067 1.07 1.07 0 0 1 1.067-1.067c2.298 0 4.267-2.933 4.267-5.333a1.07 1.07 0 0 1 1.067-1.067 1.07 1.07 0 0 1 1.067 1.067C32 27.986 29.204 32 25.6 32z"/><path d="M11.84 30.492c-.273 0-.546-.105-.754-.313-.417-.416-.417-1.1 0-1.508 1.187-1.187 2.972-2.027 4.774-2.245 2.035-.25 3.823.282 5.03 1.5.416.417.416 1.092 0 1.508s-1.092.417-1.508 0c-.724-.724-1.913-1.045-3.265-.882-1.345.163-2.66.775-3.522 1.636-.2.208-.484.313-.756.313zM27.98 35.5c-1.634 0-3.056-.535-4.07-1.55-.416-.417-.416-1.092 0-1.508s1.092-.417 1.508 0c.724.724 1.914 1.047 3.265.882 1.345-.163 2.66-.775 3.522-1.636.417-.417 1.092-.417 1.508 0s.417 1.1 0 1.508c-1.187 1.187-2.972 2.027-4.774 2.245a7.69 7.69 0 0 1-.959.06z"/><use xlink:href="#D"/><use xlink:href="#E"/><use xlink:href="#B" x="25.6"/><path d="M48 35.2c-2.353 0-4.267-1.914-4.267-4.267s1.914-4.267 4.267-4.267 4.267 1.914 4.267 4.267S50.353 35.2 48 35.2zm0-6.4c-1.177 0-2.133.957-2.133 2.133s.957 2.133 2.133 2.133 2.133-.957 2.133-2.133S49.177 28.8 48 28.8z"/><path d="M48 28.8a1.07 1.07 0 0 1-1.067-1.067c0-2.298-2.932-4.267-5.333-4.267a1.07 1.07 0 0 1-1.067-1.067 1.07 1.07 0 0 1 1.067-1.067c3.453 0 7.467 2.796 7.467 6.4A1.07 1.07 0 0 1 48 28.8z"/><use xlink:href="#C" x="25.6"/><path d="M39.467 38.4a1.07 1.07 0 0 1-1.067-1.067c0-3.453 2.796-7.467 6.4-7.467a1.07 1.07 0 0 1 1.067 1.067A1.07 1.07 0 0 1 44.8 32c-2.298 0-4.267 2.933-4.267 5.333 0 .6-.478 1.067-1.066 1.067zM51.2 32a1.07 1.07 0 0 1-1.067-1.067 1.07 1.07 0 0 1 1.067-1.067c2.298 0 4.267-2.933 4.267-5.333a1.07 1.07 0 0 1 1.067-1.067 1.07 1.07 0 0 1 1.067 1.067C57.6 27.986 54.804 32 51.2 32z"/><path d="M37.44 30.492c-.273 0-.546-.105-.754-.313-.417-.416-.417-1.1 0-1.508 1.187-1.187 2.972-2.027 4.774-2.245 2.035-.25 3.823.282 5.03 1.5.416.417.416 1.092 0 1.508s-1.092.417-1.508 0c-.724-.724-1.914-1.045-3.265-.882-1.345.163-2.66.775-3.522 1.636-.2.208-.484.313-.756.313zM53.58 35.5c-1.634 0-3.056-.535-4.07-1.55-.416-.417-.416-1.092 0-1.508s1.092-.417 1.508 0c.724.724 1.913 1.047 3.265.882 1.345-.163 2.66-.775 3.522-1.636.417-.417 1.092-.417 1.508 0s.417 1.1 0 1.508c-1.187 1.187-2.972 2.027-4.774 2.245a7.69 7.69 0 0 1-.959.06z"/><use xlink:href="#D" x="25.6"/><use xlink:href="#E" x="25.6"/><defs ><path id="B" d="m22.4 42.667c-6.469 0-11.733-5.264-11.733-11.733s5.264-11.734 11.733-11.734 11.733 5.264 11.733 11.733-5.264 11.734-11.733 11.734zm0-21.334c-5.294 0-9.6 4.307-9.6 9.6s4.306 9.6 9.6 9.6 9.6-4.307 9.6-9.6-4.306-9.6-9.6-9.6z"/><path id="C" d="m28.8 40.533c-3.453 0-7.467-2.796-7.467-6.4 0-.589.478-1.067 1.067-1.067s1.067.478 1.067 1.067c0 2.298 2.932 4.267 5.333 4.267.589 0 1.067.478 1.067 1.067 0 .588-.478 1.066-1.067 1.066z"/><path id="D" d="M20.892 42.56c-.273 0-.546-.105-.754-.313-2.442-2.442-3.302-7.257-.754-9.805.417-.417 1.092-.417 1.508 0s.417 1.09 0 1.508c-1.625 1.625-.944 5.09.754 6.788.417.417.417 1.09 0 1.508-.208.2-.48.314-.754.314z"/><path id="E" d="M24.662 29.738c-.273 0-.546-.105-.754-.313-.417-.416-.417-1.09 0-1.508 1.625-1.625.944-5.09-.754-6.788-.417-.417-.417-1.09 0-1.508s1.092-.417 1.508 0c2.442 2.442 3.302 7.257.754 9.805-.207.207-.48.312-.754.312z"/></defs></svg>