<svg xmlns="http://www.w3.org/2000/svg" viewBox="0 0 512 512" xmlns:v="https://vecta.io/nano"><path d="M477.858 8.533H34.142C15.317 8.533 0 23.85 0 42.675v281.59a8.54 8.54 0 0 0 8.533 8.533h494.933a8.54 8.54 0 0 0 8.533-8.533V42.675C512 23.85 496.683 8.533 477.858 8.533zm17.075 307.2H17.067V42.675c0-9.42 7.663-17.075 17.075-17.075h443.716c9.412 0 17.075 7.654 17.075 17.075v273.058z"/><path d="M503.467 315.733H8.533A8.54 8.54 0 0 0 0 324.266v42.658c0 18.825 15.317 34.142 34.142 34.142h443.716c18.825 0 34.142-15.317 34.142-34.142v-42.658a8.54 8.54 0 0 0-8.533-8.533zm-8.534 51.192c0 9.42-7.663 17.075-17.075 17.075H34.142c-9.412 0-17.075-7.654-17.075-17.075V332.8h477.867v34.125zM281.6 349.867h-51.2a8.54 8.54 0 0 0-8.533 8.533 8.54 8.54 0 0 0 8.533 8.533h51.2a8.54 8.54 0 0 0 8.533-8.533 8.54 8.54 0 0 0-8.533-8.533z"/><path d="M469.333 42.667H42.667a8.54 8.54 0 0 0-8.533 8.533v273.067a8.54 8.54 0 0 0 8.533 8.533h426.667a8.54 8.54 0 0 0 8.533-8.533V51.2a8.54 8.54 0 0 0-8.534-8.533zM460.8 315.733H51.2v-256h409.6v256zm-93.867 136.534H145.067c-14.114 0-25.6 11.486-25.6 25.6s11.486 25.6 25.6 25.6h221.867c14.114 0 25.6-11.486 25.6-25.6s-11.487-25.6-25.6-25.6zm0 34.133H145.067a8.55 8.55 0 0 1-8.533-8.533c0-4.703 3.823-8.533 8.533-8.533h221.867a8.55 8.55 0 0 1 8.533 8.533c0 4.703-3.823 8.533-8.534 8.533z"/><path d="M349.867 452.267c-28.314 0-42.667-20.096-42.667-59.733a8.54 8.54 0 0 0-8.533-8.533h-85.333a8.54 8.54 0 0 0-8.533 8.533c0 39.637-14.353 59.733-42.667 59.733a8.54 8.54 0 0 0-8.533 8.533 8.54 8.54 0 0 0 8.533 8.533h187.733a8.54 8.54 0 0 0 8.533-8.533 8.54 8.54 0 0 0-8.533-8.533zm-146.168 0c10.505-11.64 16.7-28.97 17.937-51.2h68.736c1.237 22.23 7.424 39.56 17.937 51.2H203.7zM407.757 259.96l-20.6-20.6 11.46-11.46c2.125-2.125 2.978-5.214 2.244-8.124s-2.944-5.214-5.82-6.084l-85.333-25.6a8.52 8.52 0 0 0-8.482 2.142 8.51 8.51 0 0 0-2.142 8.482l25.6 85.333c.862 2.884 3.174 5.094 6.084 5.828 2.9.717 6-.12 8.124-2.244l12.066-12.075 20.6 20.608c1.596 1.604 3.772 2.5 6.033 2.5s4.437-.896 6.033-2.5l24.132-24.14c3.337-3.336 3.337-8.73.001-12.066zm-30.166 18.108l-18.756-18.765a11.1 11.1 0 0 0-7.876-3.26 11.13 11.13 0 0 0-7.876 3.251l-6.16 6.16-16.94-56.465 56.465 16.94-6.605 6.605a9.61 9.61 0 0 0-2.816 6.827c0 2.586 1.007 5.026 2.833 6.835l19.797 19.797-12.066 12.075zM358.4 76.8H119.467a8.54 8.54 0 0 0-8.533 8.533V128a8.54 8.54 0 0 0 8.533 8.533H358.4a8.54 8.54 0 0 0 8.533-8.533V85.333A8.54 8.54 0 0 0 358.4 76.8zm-8.533 42.667H128v-25.6h221.867v25.6zm-128 51.2H153.6a8.54 8.54 0 0 0-8.533 8.533v34.133a8.54 8.54 0 0 0 8.533 8.533h68.267a8.54 8.54 0 0 0 8.533-8.533V179.2a8.54 8.54 0 0 0-8.533-8.533zm-8.534 34.133h-51.2v-17.067h51.2V204.8z"/><path d="M358.4 76.8H119.467a8.54 8.54 0 0 0-8.533 8.533v162.133a8.54 8.54 0 0 0 8.533 8.533h203.145a8.5 8.5 0 0 0 6.844-3.439c1.613-2.167 2.108-4.966 1.33-7.552l-10.803-36.02 35.968 10.795a8.51 8.51 0 0 0 7.543-1.331c2.167-1.604 3.44-4.147 3.44-6.844V85.333A8.54 8.54 0 0 0 358.4 76.8zm-8.533 123.34l-40.167-12.05a8.52 8.52 0 0 0-8.482 2.142c-2.227 2.227-3.046 5.478-2.142 8.49l12.066 40.21H128V93.867h221.867V200.14z"/></svg>