<svg xmlns="http://www.w3.org/2000/svg" xmlns:xlink="http://www.w3.org/1999/xlink" height="512" viewBox="0 0 64 64" width="512" xmlns:v="https://vecta.io/nano"><path d="M62 7H46V6a1 1 0 0 0-1-1V3h-2v2h-1V2a1 1 0 0 0-1-1h-6a1 1 0 0 0-1 1v3h-1V3h-2v2a1 1 0 0 0-1 1v1h-2V6a1 1 0 0 0-1-1V2a1 1 0 0 0-1-1h-8a1 1 0 0 0-1 1v3a1 1 0 0 0-1 1v1H2a1 1 0 0 0-1 1v54a1 1 0 0 0 1 1h60a1 1 0 0 0 1-1V8a1 1 0 0 0-1-1zm-25 7V7h2v7zm-2 0h-3v-1h2v-2h-2V7h3zm-3 2h12v2H32zm12-2h-3V7h3v4h-2v2h2zM36 3h4v2h-4zM21 9v6h-3V7h8v8h-3V9zm4-4h-2V3h2zm-6-2h2v2h-2zm42 58H3V9h13v7a1 1 0 0 0 1 1h10a1 1 0 0 0 1-1V9h2v10a1 1 0 0 0 1 1h14a1 1 0 0 0 1-1V9h15zm-6-41h4a1 1 0 0 0 1-1v-8a1 1 0 0 0-1-1h-4a1 1 0 0 0-1 1v8a1 1 0 0 0 1 1zm1-8h2v6h-2zm-8 8h4a1 1 0 0 0 1-1v-8a1 1 0 0 0-1-1h-4a1 1 0 0 0-1 1v8a1 1 0 0 0 1 1zm1-8h2v6h-2z"/><use xlink:href="#B"/><use xlink:href="#B" x="12" y="9"/><use xlink:href="#B" x="16" y="9"/><use xlink:href="#B" x="44" y="13"/><use xlink:href="#C"/><use xlink:href="#B" x="26" y="11"/><use xlink:href="#B" x="26" y="15"/><use xlink:href="#B" x="12" y="13"/><use xlink:href="#B" x="16" y="13"/><use xlink:href="#C" x="-40" y="34"/><use xlink:href="#C" x="13" y="34"/><path d="M58 51.5a1.5 1.5 0 1 0-3 0 1.5 1.5 0 1 0 3 0zm-1.5.5a.5.5 0 1 1 0-1 .5.5 0 1 1 0 1zM17 53h3a1 1 0 0 0 1-1V28a1 1 0 0 0-1-1h-3a1 1 0 0 0-1 1v24a1 1 0 0 0 1 1zm1-24h1v22h-1zm-4-10h-3a1 1 0 0 0-1 1v24a1 1 0 0 0 1 1h3a1 1 0 0 0 1-1V20a1 1 0 0 0-1-1zm-1 24h-1V21h1zm-8 2h3a1 1 0 0 0 1-1V20a1 1 0 0 0-1-1H5a1 1 0 0 0-1 1v24a1 1 0 0 0 1 1zm1-24h1v22H6z"/><use xlink:href="#D"/><use xlink:href="#D" y="6"/><path d="M28 53a1 1 0 0 0 1-1V24a1 1 0 0 0-1-1h-3a1 1 0 0 0-1 1v28a1 1 0 0 0 1 1zm-2-28h1v26h-1zm23 2a1 1 0 0 0-1 1v4a1 1 0 0 0 1 1h4a1 1 0 0 0 1-1v-4a1 1 0 0 0-1-1zm3 4h-2v-2h2zm-10 2h4a1 1 0 0 0 1-1v-4a1 1 0 0 0-1-1h-4a1 1 0 0 0-1 1v4a1 1 0 0 0 1 1zm1-4h2v2h-2zm-8 4h4a1 1 0 0 0 1-1v-4a1 1 0 0 0-1-1h-4a1 1 0 0 0-1 1v4a1 1 0 0 0 1 1zm1-4h2v2h-2zM13 46H5a1 1 0 0 0-1 1v8a1 1 0 0 0 1 1h8a1 1 0 0 0 1-1v-8a1 1 0 0 0-1-1zm-1 8H6v-6h6zm-4-1h2a1 1 0 0 0 1-1v-2a1 1 0 0 0-1-1H8a1 1 0 0 0-1 1v2a1 1 0 0 0 1 1zm8 1h8v2h-8zm0 3h8v2h-8zm9 0h2v2h-2zm3 0h2v2h-2zm3 0h2v2h-2zm27-18h2v2h-2zm0 3h2v2h-2zm0 3h2v2h-2zm-3-20h5v2h-5zm0 3h5v2h-5zm0 3h5v2h-5zM13 11h2v6h-2zm-3 0h2v6h-2zm-3 4h2v2H7zm29 21c0-1.654-1.346-3-3-3s-3 1.346-3 3 1.346 3 3 3 3-1.346 3-3zm-3 1a1 1 0 1 1 0-2 1 1 0 1 1 0 2zm6-1v2a1 1 0 0 0-1 1v.22l-3.242.8A1 1 0 0 0 34 41v4a1 1 0 0 0 .758.97l3.242.8V47a1 1 0 0 0 1 1h10a1 1 0 0 0 1-1V36h-2v2h-1v-2h-2v2h-1v-2h-2v2h-1v-2zm-3 8.22v-2.44l2-.5v3.44zM48 46h-8v-2h6v-2h-6v-2h8zm4-4h4a1 1 0 0 0 1-1v-3a1 1 0 0 0-1-1h-4a1 1 0 0 0-1 1v3a1 1 0 0 0 1 1zm1-3h2v1h-2zm-2 8a1 1 0 0 0 1 1h4a1 1 0 0 0 1-1v-3a1 1 0 0 0-1-1h-4a1 1 0 0 0-1 1zm2-2h2v1h-2z"/><defs ><path id="B" d="M5.5 13a1.5 1.5 0 1 0 0-3 1.5 1.5 0 1 0 0 3zm0-2a.5.5 0 1 1 0 1 .5.5 0 1 1 0-1z"/><path id="C" d="M45.5 23a1.5 1.5 0 1 0 0 3 1.5 1.5 0 1 0 0-3zm0 2a.5.5 0 1 1 0-1 .5.5 0 1 1 0 1z"/><path id="D" d="M53 49H35a1 1 0 0 0-1 1v3a1 1 0 0 0 1 1h18a1 1 0 0 0 1-1v-3a1 1 0 0 0-1-1zm-1 3H36v-1h16z"/></defs></svg>