<svg xmlns="http://www.w3.org/2000/svg" height="512" width="512" xmlns:v="https://vecta.io/nano"><path d="M504.5 229.154a7.5 7.5 0 0 0 7.5-7.5v-56.57a7.5 7.5 0 0 0-7.5-7.5H90a7.5 7.5 0 1 0 0 15h407v42.464c-13.896 3.38-24.244 15.93-24.244 30.85s10.35 27.47 24.244 30.85v62.667h-13.285V316.6a7.5 7.5 0 0 0-7.5-7.5H205.492a7.5 7.5 0 0 0-7.5 7.5v22.805h-13.284v-7.652c0-12.5-10.162-22.652-22.653-22.652s-22.652 10.162-22.652 22.652v7.652h-13.285V316.6a7.5 7.5 0 0 0-7.5-7.5H35.785a7.5 7.5 0 0 0-7.5 7.5v22.805H15v-62.667c13.896-3.38 24.244-15.928 24.244-30.85S28.896 218.428 15 215.05v-42.464h39.97a7.5 7.5 0 1 0 0-15H7.5a7.5 7.5 0 0 0-7.5 7.5v56.57a7.5 7.5 0 0 0 7.5 7.5c9.233 0 16.744 7.5 16.744 16.744s-7.5 16.744-16.744 16.744a7.5 7.5 0 0 0-7.5 7.5v76.772a7.5 7.5 0 0 0 7.5 7.5h61.292a7.5 7.5 0 1 0 0-15H43.285V324.1h67.833v15.305H104a7.5 7.5 0 1 0 0 15h42.902a7.5 7.5 0 0 0 7.5-7.5v-15.152c0-4.22 3.433-7.652 7.652-7.652s7.653 3.433 7.653 7.652v15.152a7.5 7.5 0 0 0 7.5 7.5h224.26a7.5 7.5 0 1 0 0-15H212.992V324.1h255.724v15.305h-32.174a7.5 7.5 0 1 0 0 15H504.5a7.5 7.5 0 0 0 7.5-7.5v-76.772a7.5 7.5 0 0 0-7.5-7.5c-9.233 0-16.744-7.5-16.744-16.744s7.5-16.745 16.744-16.745zm-62.63 58.6a7.5 7.5 0 0 0 7.5-7.5V199.43a7.5 7.5 0 0 0-7.5-7.5h-40.407a7.5 7.5 0 0 0-7.5 7.5v80.813a7.5 7.5 0 0 0 7.5 7.5zm-32.907-80.813h25.407v65.813h-25.407zm-49.926 80.813a7.5 7.5 0 0 0 7.5-7.5V199.43a7.5 7.5 0 0 0-7.5-7.5H318.63a7.5 7.5 0 0 0-7.5 7.5v80.813a7.5 7.5 0 0 0 7.5 7.5zM326.13 206.93h25.407v65.813H326.13zm-173.167 80.814h40.407a7.5 7.5 0 0 0 7.5-7.5V199.43a7.5 7.5 0 0 0-7.5-7.5h-40.407a7.5 7.5 0 0 0-7.5 7.5v80.813a7.5 7.5 0 0 0 7.5 7.5zm7.5-80.813h25.407v65.813h-25.407zM70.13 287.744h40.407a7.5 7.5 0 0 0 7.5-7.5V199.43a7.5 7.5 0 0 0-7.5-7.5H70.13a7.5 7.5 0 0 0-7.5 7.5v80.813a7.5 7.5 0 0 0 7.5 7.5zm7.5-80.813h25.407v65.813H77.63zm198.573 80.813a7.5 7.5 0 0 0 7.5-7.5V199.43a7.5 7.5 0 0 0-7.5-7.5h-40.406a7.5 7.5 0 0 0-7.5 7.5v80.813a7.5 7.5 0 0 0 7.5 7.5zm-32.906-80.813h25.406v65.813h-25.406z"/></svg>