<svg xmlns="http://www.w3.org/2000/svg" height="512" width="512" xmlns:v="https://vecta.io/nano"><circle cx="391.362" cy="47.906" r="10.102"/><circle cx="120.638" cy="47.906" r="10.102"/><circle cx="391.362" cy="377.22" r="10.102"/><circle cx="120.638" cy="377.22" r="10.102"/><path d="M358.455 47.907a7.5 7.5 0 0 0-7.5-7.5h-189.9a7.5 7.5 0 0 0-7.5 7.5c0 18.145-14.762 32.906-32.906 32.906a7.5 7.5 0 0 0-7.5 7.5v248.5a7.5 7.5 0 0 0 7.5 7.5c18.145 0 32.906 14.762 32.906 32.907a7.5 7.5 0 0 0 7.5 7.5h189.9a7.5 7.5 0 0 0 7.5-7.5c0-18.145 14.762-32.907 32.906-32.907a7.5 7.5 0 0 0 7.5-7.5v-248.5a7.5 7.5 0 0 0-7.5-7.5c-18.144 0-32.906-14.762-32.906-32.906zM383.86 329.9c-20.422 3.224-36.596 19.398-39.82 39.82H167.96c-3.225-20.422-19.398-36.596-39.82-39.82V95.227c20.422-3.224 36.596-19.397 39.82-39.82h176.08c3.225 20.422 19.398 36.596 39.82 39.82zM411.77 0H100.23c-15.163 0-27.5 12.336-27.5 27.5v78.167a7.5 7.5 0 1 0 15 0V27.5c0-6.893 5.607-12.5 12.5-12.5h311.537c6.893 0 12.5 5.607 12.5 12.5v240.297a7.5 7.5 0 1 0 15 0V27.5C439.27 12.336 426.932 0 411.77 0zm20 295.333a7.5 7.5 0 0 0-7.5 7.5v94.793c0 6.893-5.607 12.5-12.5 12.5H100.23c-6.893 0-12.5-5.607-12.5-12.5v-256.97a7.5 7.5 0 1 0-15 0v343.64c0 15.276 12.43 27.704 27.704 27.704h311.13c15.275 0 27.703-12.428 27.703-27.703V302.833a7.5 7.5 0 0 0-7.499-7.5zM379.82 497h-11.265v-22.805a7.5 7.5 0 0 0-7.5-7.5H256a7.5 7.5 0 0 0-7.5 7.5V497h-11.265v-22.805a7.5 7.5 0 0 0-7.5-7.5h-78.792a7.5 7.5 0 0 0-7.5 7.5V497h-11.265v-41.57H379.82zm-26.264 0H263.5v-15.305h90.057zm-131.322 0h-63.792v-15.305h63.792zm189.33 0H394.82v-49.07a7.5 7.5 0 0 0-7.5-7.5H124.68a7.5 7.5 0 0 0-7.5 7.5V497h-16.744a12.72 12.72 0 0 1-12.703-12.703v-62.2a27.32 27.32 0 0 0 12.5 3.018H411.77a27.31 27.31 0 0 0 12.5-3.018v62.2c0 7.004-5.7 12.703-12.704 12.703zM189.33 115.16h-20.203c-9.705 0-17.602 7.896-17.602 17.602v20.203c0 9.706 7.896 17.602 17.602 17.602h20.203c1.435 0 2.602 1.167 2.602 2.602v20.204c0 1.435-1.167 2.602-2.602 2.602h-20.203c-1.435 0-2.602-1.167-2.602-2.602v-4.04a7.5 7.5 0 1 0-15 0v4.04c0 9.706 7.896 17.602 17.602 17.602h20.203c9.705 0 17.602-7.896 17.602-17.602V173.17c0-9.706-7.896-17.602-17.602-17.602h-20.203c-1.435 0-2.602-1.167-2.602-2.602V132.76c0-1.435 1.167-2.602 2.602-2.602h20.203c1.435 0 2.602 1.167 2.602 2.602v4.04a7.5 7.5 0 1 0 15 0v-4.04c0-9.705-7.897-17.6-17.602-17.6zm76.772 0H245.9c-9.705 0-17.602 7.896-17.602 17.602v20.203c0 9.706 7.896 17.602 17.602 17.602h20.203c1.435 0 2.602 1.167 2.602 2.602v20.204c0 1.435-1.167 2.602-2.602 2.602H245.9c-1.435 0-2.602-1.167-2.602-2.602v-4.04a7.5 7.5 0 1 0-15 0v4.04c0 9.706 7.896 17.602 17.602 17.602h20.203c9.705 0 17.602-7.896 17.602-17.602V173.17c0-9.706-7.896-17.602-17.602-17.602H245.9c-1.435 0-2.602-1.167-2.602-2.602V132.76c0-1.435 1.167-2.602 2.602-2.602h20.203c1.435 0 2.602 1.167 2.602 2.602v4.04a7.5 7.5 0 1 0 15 0v-4.04c-.001-9.705-7.897-17.6-17.602-17.6zm66.67 0H312.57a7.5 7.5 0 0 0-7.5 7.5v80.813a7.5 7.5 0 0 0 7.5 7.5h20.203c15.275 0 27.703-12.428 27.703-27.704v-40.406c.001-15.276-12.427-27.703-27.703-27.703zm12.704 68.1a12.72 12.72 0 0 1-12.703 12.704H320.07V130.16h12.703a12.72 12.72 0 0 1 12.703 12.703z"/></svg>